<svg xmlns="http://www.w3.org/2000/svg" viewBox="0 0 1200 675" role="img" aria-labelledby="title desc">
  <title id="title">AI agents entering bank compliance workflows</title>
  <desc id="desc">Editorial illustration of AI agents helping a credit union compliance team route alerts with human review controls.</desc>
  <defs>
    <linearGradient id="bg" x1="0" x2="1" y1="0" y2="1"><stop offset="0" stop-color="#071832"/><stop offset="0.55" stop-color="#17385d"/><stop offset="1" stop-color="#284e8f"/></linearGradient>
    <linearGradient id="card" x1="0" x2="1"><stop offset="0" stop-color="#f8fbff"/><stop offset="1" stop-color="#dff7ff"/></linearGradient>
    <filter id="shadow" x="-20%" y="-20%" width="140%" height="140%"><feDropShadow dx="0" dy="18" stdDeviation="24" flood-color="#020b18" flood-opacity="0.34"/></filter>
  </defs>
  <rect width="1200" height="675" fill="url(#bg)"/>
  <path d="M0 520 C220 410 330 610 550 500 S950 390 1200 505 V675 H0z" fill="#75f0d6" opacity="0.09"/>
  <circle cx="1030" cy="110" r="180" fill="#ffffff" opacity="0.07"/>
  <g filter="url(#shadow)">
    <rect x="110" y="116" width="438" height="392" rx="30" fill="url(#card)"/>
    <rect x="154" y="158" width="180" height="16" rx="8" fill="#0b1f3b" opacity="0.76"/>
    <rect x="154" y="210" width="328" height="46" rx="14" fill="#ffffff" stroke="#c8e7f2"/>
    <rect x="178" y="228" width="108" height="10" rx="5" fill="#0fb4a7" opacity="0.74"/>
    <circle cx="444" cy="233" r="16" fill="#ffcf70"/>
    <rect x="154" y="284" width="328" height="46" rx="14" fill="#ffffff" stroke="#c8e7f2"/>
    <rect x="178" y="302" width="154" height="10" rx="5" fill="#2454a6" opacity="0.62"/>
    <circle cx="444" cy="307" r="16" fill="#0fb4a7"/>
    <rect x="154" y="358" width="328" height="46" rx="14" fill="#ffffff" stroke="#c8e7f2"/>
    <rect x="178" y="376" width="132" height="10" rx="5" fill="#ff6b6b" opacity="0.62"/>
    <circle cx="444" cy="381" r="16" fill="#ff6b6b"/>
    <rect x="154" y="438" width="144" height="28" rx="14" fill="#0b1f3b" opacity="0.88"/>
    <rect x="322" y="438" width="126" height="28" rx="14" fill="#0fb4a7" opacity="0.86"/>
  </g>
  <g filter="url(#shadow)">
    <rect x="646" y="118" width="420" height="390" rx="30" fill="#0b1f3b" stroke="#7ef5df" stroke-opacity="0.24"/>
    <circle cx="856" cy="248" r="84" fill="#123b68" stroke="#7ef5df" stroke-width="4"/>
    <circle cx="824" cy="237" r="10" fill="#7ef5df"/><circle cx="888" cy="237" r="10" fill="#7ef5df"/>
    <path d="M816 278c28 24 57 24 84 0" fill="none" stroke="#7ef5df" stroke-width="8" stroke-linecap="round"/>
    <path d="M856 164v-42M856 332v42M772 248h-42M940 248h42" stroke="#7ef5df" stroke-width="7" stroke-linecap="round" opacity="0.65"/>
    <circle cx="856" cy="112" r="20" fill="#ffcf70"/><circle cx="856" cy="386" r="20" fill="#0fb4a7"/><circle cx="720" cy="248" r="20" fill="#9fd7ff"/><circle cx="992" cy="248" r="20" fill="#ff8a8a"/>
    <rect x="706" y="430" width="296" height="16" rx="8" fill="#d9fff6" opacity="0.36"/>
    <rect x="756" y="462" width="196" height="16" rx="8" fill="#d9fff6" opacity="0.22"/>
  </g>
  <g filter="url(#shadow)">
    <path d="M540 575c0-76 126-76 126 0v100H540z" fill="#eff9ff"/>
    <circle cx="603" cy="500" r="48" fill="#ffc89e"/>
    <path d="M760 575c0-76 126-76 126 0v100H760z" fill="#c9fff4"/>
    <circle cx="823" cy="500" r="48" fill="#a8d6ff"/>
  </g>
  <g opacity="0.7" stroke="#ffffff" stroke-width="3" fill="none">
    <path d="M548 312 C590 312 600 312 646 312"/>
    <path d="M548 380 C610 400 620 416 666 446"/>
  </g>
</svg>
