<svg xmlns="http://www.w3.org/2000/svg" viewBox="0 0 1200 675" role="img" aria-labelledby="title desc">
  <title id="title">Compliance command center monitoring AI agents</title>
  <desc id="desc">A distinctive editorial illustration of a credit union compliance command center with AI agents routing AML, fraud, audit, and policy alerts through human approval checkpoints.</desc>
  <defs>
    <radialGradient id="bg" cx="50%" cy="45%" r="75%">
      <stop offset="0" stop-color="#203a72"/>
      <stop offset="0.52" stop-color="#0a1b37"/>
      <stop offset="1" stop-color="#040b17"/>
    </radialGradient>
    <linearGradient id="glass" x1="0" x2="1" y1="0" y2="1">
      <stop offset="0" stop-color="#ffffff" stop-opacity="0.98"/>
      <stop offset="1" stop-color="#dff8ff" stop-opacity="0.92"/>
    </linearGradient>
    <linearGradient id="node" x1="0" x2="1">
      <stop offset="0" stop-color="#7ef5df"/>
      <stop offset="1" stop-color="#6aa8ff"/>
    </linearGradient>
    <filter id="shadow" x="-25%" y="-25%" width="150%" height="150%">
      <feDropShadow dx="0" dy="22" stdDeviation="26" flood-color="#000814" flood-opacity="0.42"/>
    </filter>
    <filter id="glow" x="-40%" y="-40%" width="180%" height="180%">
      <feGaussianBlur stdDeviation="7" result="blur"/>
      <feMerge><feMergeNode in="blur"/><feMergeNode in="SourceGraphic"/></feMerge>
    </filter>
  </defs>

  <rect width="1200" height="675" fill="url(#bg)"/>
  <g opacity="0.18" stroke="#9cecff" stroke-width="1.4">
    <path d="M70 110h1060M70 190h1060M70 270h1060M70 350h1060M70 430h1060M70 510h1060"/>
    <path d="M150 70v520M310 70v520M470 70v520M630 70v520M790 70v520M950 70v520"/>
  </g>

  <g filter="url(#shadow)">
    <rect x="104" y="92" width="992" height="492" rx="34" fill="#071832" stroke="#9cecff" stroke-opacity="0.26"/>
    <rect x="140" y="128" width="920" height="72" rx="22" fill="#0d2a51"/>
    <circle cx="178" cy="164" r="12" fill="#ff6b6b"/>
    <circle cx="216" cy="164" r="12" fill="#ffcf70"/>
    <circle cx="254" cy="164" r="12" fill="#7ef5df"/>
    <rect x="810" y="150" width="198" height="28" rx="14" fill="#7ef5df" opacity="0.26"/>
  </g>

  <g filter="url(#glow)" opacity="0.92" stroke="url(#node)" stroke-width="5" fill="none" stroke-linecap="round">
    <path d="M600 314 C498 254 410 254 326 306"/>
    <path d="M600 314 C706 240 810 242 888 306"/>
    <path d="M600 314 C508 390 418 414 316 432"/>
    <path d="M600 314 C714 390 808 416 930 432"/>
    <path d="M600 314 V472"/>
  </g>

  <g filter="url(#shadow)">
    <circle cx="600" cy="314" r="92" fill="#102f56" stroke="#7ef5df" stroke-width="5"/>
    <path d="M600 242v-34M600 420v-34M508 314h-34M726 314h-34" stroke="#7ef5df" stroke-width="8" stroke-linecap="round" opacity="0.8"/>
    <circle cx="566" cy="294" r="12" fill="#7ef5df"/>
    <circle cx="634" cy="294" r="12" fill="#7ef5df"/>
    <path d="M558 342c26 25 59 25 85 0" fill="none" stroke="#7ef5df" stroke-width="8" stroke-linecap="round"/>
    <path d="M600 230c46 0 84 38 84 84s-38 84-84 84-84-38-84-84 38-84 84-84z" fill="none" stroke="#ffffff" stroke-opacity="0.13" stroke-width="18"/>
  </g>

  <g filter="url(#shadow)">
    <rect x="190" y="262" width="210" height="92" rx="22" fill="url(#glass)"/>
    <circle cx="230" cy="308" r="22" fill="#ffcf70"/>
    <path d="M230 292v20" stroke="#081832" stroke-width="6" stroke-linecap="round"/><circle cx="230" cy="323" r="4" fill="#081832"/>
    <rect x="268" y="286" width="82" height="10" rx="5" fill="#071832" opacity="0.55"/>
    <rect x="268" y="314" width="108" height="10" rx="5" fill="#071832" opacity="0.24"/>

    <rect x="806" y="262" width="210" height="92" rx="22" fill="url(#glass)"/>
    <circle cx="848" cy="308" r="22" fill="#ff6b6b"/>
    <path d="M836 308h24" stroke="#fff" stroke-width="7" stroke-linecap="round"/>
    <rect x="884" y="286" width="86" height="10" rx="5" fill="#071832" opacity="0.55"/>
    <rect x="884" y="314" width="104" height="10" rx="5" fill="#071832" opacity="0.24"/>

    <rect x="184" y="398" width="238" height="104" rx="24" fill="url(#glass)"/>
    <circle cx="232" cy="450" r="25" fill="#6aa8ff"/>
    <path d="M218 450l10 10 22-26" fill="none" stroke="#fff" stroke-width="7" stroke-linecap="round" stroke-linejoin="round"/>
    <rect x="276" y="426" width="86" height="10" rx="5" fill="#071832" opacity="0.55"/>
    <rect x="276" y="455" width="118" height="10" rx="5" fill="#071832" opacity="0.24"/>

    <rect x="796" y="398" width="248" height="104" rx="24" fill="url(#glass)"/>
    <circle cx="844" cy="450" r="25" fill="#7ef5df"/>
    <path d="M832 452l10 10 24-30" fill="none" stroke="#081832" stroke-width="7" stroke-linecap="round" stroke-linejoin="round"/>
    <rect x="888" y="426" width="98" height="10" rx="5" fill="#071832" opacity="0.55"/>
    <rect x="888" y="455" width="126" height="10" rx="5" fill="#071832" opacity="0.24"/>
  </g>

  <g filter="url(#shadow)">
    <rect x="462" y="486" width="276" height="86" rx="24" fill="#f8fbff"/>
    <path d="M508 530l34 24 62-70 54 64 38-32" fill="none" stroke="#0fb4a7" stroke-width="8" stroke-linecap="round" stroke-linejoin="round"/>
    <rect x="494" y="510" width="86" height="10" rx="5" fill="#071832" opacity="0.42"/>
  </g>

  <g opacity="0.96" filter="url(#shadow)">
    <circle cx="450" cy="617" r="42" fill="#ffd0a6"/>
    <path d="M380 675c8-66 132-66 144 0" fill="#e8f7ff"/>
    <circle cx="752" cy="617" r="42" fill="#a8d6ff"/>
    <path d="M682 675c8-66 132-66 144 0" fill="#c9fff4"/>
  </g>
</svg>
